<svg width="560" height="140" viewBox="0 0 560 140" fill="none" xmlns="http://www.w3.org/2000/svg" role="img" aria-labelledby="logoTitle logoDesc">
  <title id="logoTitle">Noor Travels logo</title>
  <desc id="logoDesc">A circular travel emblem with a plane and route beside the Noor Travels wordmark.</desc>
  <defs>
    <linearGradient id="goldGlow" x1="24" y1="24" x2="118" y2="118" gradientUnits="userSpaceOnUse">
      <stop stop-color="#E5B15F"/>
      <stop offset="1" stop-color="#B86A16"/>
    </linearGradient>
    <linearGradient id="trailFade" x1="29" y1="70" x2="112" y2="99" gradientUnits="userSpaceOnUse">
      <stop stop-color="#12362F"/>
      <stop offset="1" stop-color="#2E6A5F"/>
    </linearGradient>
  </defs>

  <circle cx="70" cy="70" r="58" fill="#FFF9EF"/>
  <circle cx="70" cy="70" r="54" stroke="#12362F" stroke-width="8"/>
  <path d="M29 79C40 64 57 55 78 53C89 52 101 55 112 62" stroke="url(#goldGlow)" stroke-width="9" stroke-linecap="round"/>
  <path d="M33 91C44 102 57 108 70 109C86 110 100 104 110 93" stroke="url(#trailFade)" stroke-width="8" stroke-linecap="round"/>
  <path d="M60 38L98 29L88 39L104 44L86 49L75 63L74 49L60 38Z" fill="#C98231"/>
  <circle cx="43" cy="46" r="4" fill="#E5B15F"/>
  <circle cx="100" cy="81" r="3.5" fill="#12362F"/>

  <text x="148" y="67" fill="#12362F" font-family="'Palatino Linotype', 'Book Antiqua', Palatino, serif" font-size="42" font-weight="700" letter-spacing="0.01em">
    Noor Travels
  </text>
  <text x="150" y="97" fill="#A45B11" font-family="'Trebuchet MS', 'Lucida Sans Unicode', sans-serif" font-size="13" font-weight="700" letter-spacing="0.26em">
    VISA  TICKETING  MANPOWER SUPPORT
  </text>
  <path d="M150 109H404" stroke="#D8BA8A" stroke-width="3" stroke-linecap="round"/>
</svg>
